<svg width="47" height="39" viewBox="0 0 47 39" fill="none" xmlns="http://www.w3.org/2000/svg">
<path d="M6.44786 15.0086C5.85846 19.5205 5.50726 24.0604 5.39572 28.6093C11.5646 31.1861 17.4711 34.3507 23.0336 38.0593C28.5967 34.3506 34.504 31.186 40.6736 28.6093C40.5619 24.0604 40.2107 19.5205 39.6214 15.0086M39.6214 15.0086C41.4964 14.3786 43.3971 13.7957 45.3171 13.2643C38.3241 8.36196 30.8592 4.16976 23.0336 0.75C15.2078 4.17048 7.743 8.3634 0.75 13.2664C2.66416 13.7949 4.56344 14.3758 6.44571 15.0086C12.1642 16.9312 17.7126 19.3266 23.0336 22.17C28.3537 19.3266 33.9036 16.9311 39.6214 15.0086ZM11.7836 25.4079C12.2098 25.4079 12.6186 25.2385 12.92 24.9371C13.2214 24.6357 13.3907 24.227 13.3907 23.8007C13.3907 23.3745 13.2214 22.9657 12.92 22.6643C12.6186 22.3629 12.2098 22.1936 11.7836 22.1936C11.3573 22.1936 10.9485 22.3629 10.6472 22.6643C10.3458 22.9657 10.1764 23.3745 10.1764 23.8007C10.1764 24.227 10.3458 24.6357 10.6472 24.9371C10.9485 25.2385 11.3573 25.4079 11.7836 25.4079ZM11.7836 25.4079V17.5329C15.4194 15.2729 19.1749 13.2113 23.0336 11.3571M8.01857 36.1071C9.21423 34.9144 10.1624 33.4972 10.8085 31.9368C11.4546 30.3765 11.786 28.7038 11.7836 27.015V23.8007" stroke="white" stroke-width="1.5" stroke-linecap="round" stroke-linejoin="round"/>
</svg>
